<?xml version="1.0" encoding="UTF-8" standalone="no"?>
<!-- Created with Inkscape (http://www.inkscape.org/) -->

<svg
   width="283.57986mm"
   height="283.57986mm"
   viewBox="0 0 283.57986 283.57987"
   version="1.1"
   id="svg1"
   sodipodi:docname="logo master file.svg"
   inkscape:export-batch-path="Final"
   inkscape:export-batch-name=""
   xmlns:inkscape="http://www.inkscape.org/namespaces/inkscape"
   xmlns:sodipodi="http://sodipodi.sourceforge.net/DTD/sodipodi-0.dtd"
   xmlns="http://www.w3.org/2000/svg"
   xmlns:svg="http://www.w3.org/2000/svg">
  <sodipodi:namedview
     id="namedview1"
     pagecolor="#c7c7c7"
     bordercolor="#000000"
     borderopacity="0.25"
     inkscape:showpageshadow="2"
     inkscape:pageopacity="0.0"
     inkscape:pagecheckerboard="0"
     inkscape:deskcolor="#d1d1d1"
     inkscape:document-units="mm"
     inkscape:zoom="0.092520701"
     inkscape:cx="3593.7903"
     inkscape:cy="1756.3637"
     inkscape:window-width="2560"
     inkscape:window-height="1377"
     inkscape:window-x="-8"
     inkscape:window-y="-8"
     inkscape:window-maximized="1"
     inkscape:current-layer="g22">
    <inkscape:page
       x="0"
       y="0"
       width="283.57983"
       height="283.57986"
       id="page1"
       margin="0"
       bleed="0" />
  </sodipodi:namedview>
  <defs
     id="defs1" />
  <g
     inkscape:label="Light BG"
     inkscape:groupmode="layer"
     id="layer1"
     transform="translate(-243.43252,-1124.2572)">
    <g
       id="g25"
       inkscape:label="Solid">
      <g
         id="g37-7-1"
         inkscape:label="Solid_Full-Lockup-Light-BG"
         transform="matrix(5.1526891,0,0,5.1526891,252.21864,386.73759)"
         style="display:inline;fill:#f5f1e8;fill-opacity:1">
        <path
           style="font-size:12.6634px;font-family:'Playfair Display';-inkscape-font-specification:'Playfair Display, Normal';fill:#2b1c20;fill-opacity:1;stroke-width:1.21509;stroke-linecap:round"
           d="m 1.656122,63.765117 v 0.253268 q -0.4305556,0.01266 -0.65849683,0.101308 -0.21527779,0.07598 -0.29125819,0.303921 -0.0759804,0.215278 -0.0759804,0.683824 v 6.281046 q 0,0.455882 0.0759804,0.683824 0.0759804,0.227941 0.29125819,0.303921 0.22794123,0.06332 0.65849683,0.06332 h 0.9244281 q 0.5951798,0 0.9624184,-0.126634 0.379902,-0.126634 0.5951798,-0.392565 0.2279412,-0.278595 0.3419118,-0.734477 0.1139706,-0.455883 0.1772876,-1.114379 h 0.2912582 q -0.03799,0.392565 -0.03799,1.038398 0,0.240605 0.012663,0.696487 0.025327,0.443219 0.07598,0.924428 -0.6458334,-0.02533 -1.456291,-0.02533 -0.8104576,-0.01266 -1.4436276,-0.01266 -0.2785947,0 -0.7218137,0 -0.43055562,0 -0.93709161,0.01266 -0.50653599,0 -1.02573538,0.01266 -0.51919941,0 -0.98774521,0.01266 v -0.253268 q 0.4305556,-0.02533 0.64583342,-0.101307 0.2279412,-0.07598 0.30392159,-0.303921 0.0759804,-0.227942 0.0759804,-0.683824 v -6.281046 q 0,-0.468546 -0.0759804,-0.683824 -0.0759804,-0.227941 -0.30392159,-0.303921 Q -1.14249,64.031046 -1.5730456,64.018378 V 63.76511 q 0.2659314,0.01266 0.69648702,0.02533 0.43055559,0.01266 0.92442818,0.01266 0.44321899,0 0.87377458,-0.01266 0.44321902,-0.01266 0.73447722,-0.02533 z m 13.689134,0 q -0.05065,0.443219 -0.07598,0.861112 -0.01266,0.417892 -0.01266,0.63317 0,0.227941 0.01266,0.443219 0.01266,0.202614 0.02533,0.341911 h -0.291258 q -0.07598,-0.74714 -0.215278,-1.177696 -0.139297,-0.443219 -0.481209,-0.620506 -0.329249,-0.189951 -1.000409,-0.189951 H 12.25539 q -0.430555,0 -0.658497,0.07598 -0.215277,0.06332 -0.291258,0.291258 -0.07598,0.215278 -0.07598,0.683824 v 6.281046 q 0,0.455882 0.07598,0.683824 0.07598,0.227941 0.291258,0.303921 0.227942,0.06332 0.658497,0.06332 h 0.924428 q 0.797794,0 1.203023,-0.215278 0.417892,-0.215277 0.59518,-0.696487 0.189951,-0.493872 0.278595,-1.329656 h 0.291258 q -0.03799,0.341911 -0.03799,0.911764 0,0.240605 0.01266,0.696487 0.02533,0.443219 0.07598,0.924428 -0.645834,-0.02533 -1.456291,-0.02533 -0.810458,-0.01266 -1.443628,-0.01266 -0.278595,0 -0.721814,0 -0.430555,0 -0.937091,0.01266 -0.506536,0 -1.025736,0.01266 -0.519199,0 -0.9877448,0.01266 v -0.253268 q 0.4305556,-0.02533 0.6458334,-0.101307 0.2279412,-0.07598 0.3039216,-0.303921 0.075981,-0.227942 0.075981,-0.683824 v -6.281046 q 0,-0.468546 -0.075981,-0.683824 -0.07598,-0.227941 -0.3039216,-0.303921 -0.2152778,-0.08864 -0.6458334,-0.101308 V 63.76511 q 0.4685458,0.01266 0.9877448,0.02533 0.5192,0 1.025736,0.01266 0.506536,0 0.937091,0 0.443219,0 0.721814,0 0.582516,0 1.316994,0 0.74714,-0.01266 1.329657,-0.03799 z M 13.167151,68.096 q 0,0 0,0.126634 0,0.126634 0,0.126634 h -2.317402 q 0,0 0,-0.126634 0,-0.126634 0,-0.126634 z m 0.367238,-1.671569 q -0.05065,0.721814 -0.05065,1.101716 0.01266,0.379902 0.01266,0.696487 0,0.316585 0.01266,0.696487 0.01266,0.379902 0.06332,1.101716 H 13.28112 q -0.05065,-0.405229 -0.126634,-0.785131 -0.06332,-0.392565 -0.303921,-0.63317 -0.227941,-0.253268 -0.785131,-0.253268 V 68.096 q 0.417892,0 0.63317,-0.164624 0.227941,-0.177288 0.329248,-0.443219 0.101308,-0.265931 0.139298,-0.544526 0.03799,-0.291258 0.07598,-0.5192 z m 10.5866,-2.836601 q 0.823121,0 1.329657,0.253268 0.506536,0.240604 0.949755,0.569853 0.164624,0.126634 0.253268,0.126634 0.240605,0 0.316585,-0.772468 h 0.291258 q -0.02533,0.468546 -0.03799,1.139706 -0.01266,0.671161 -0.01266,1.772876 H 26.9196 q -0.08864,-0.531862 -0.215277,-1.025735 -0.126634,-0.493873 -0.417893,-0.848448 -0.367238,-0.468546 -0.962418,-0.721814 -0.59518,-0.265931 -1.22835,-0.265931 -0.63317,0 -1.152369,0.316585 -0.506536,0.303922 -0.873775,0.886438 -0.367238,0.582516 -0.569853,1.405637 -0.189951,0.810458 -0.189951,1.836193 0,2.279412 0.734477,3.343138 0.734478,1.051062 2.279412,1.051062 0.455883,0 0.785131,-0.126634 0.341912,-0.139297 0.531863,-0.265931 0.240605,-0.164625 0.303922,-0.303922 0.06332,-0.151961 0.06332,-0.392565 v -1.215687 q 0,-0.519199 -0.101308,-0.772467 -0.101307,-0.253268 -0.379902,-0.341912 -0.265931,-0.08864 -0.797794,-0.101307 v -0.253268 q 0.227941,0.01266 0.531863,0.02533 0.303922,0 0.63317,0.01266 0.341912,0 0.620507,0 0.417892,0 0.74714,-0.01266 0.341912,-0.01266 0.569853,-0.02533 v 0.253268 q -0.278595,0.01266 -0.417892,0.08864 -0.139297,0.07598 -0.189951,0.303921 -0.03799,0.227942 -0.03799,0.696487 V 72.7308 h -0.253268 q -0.01266,-0.215277 -0.101307,-0.468545 -0.07598,-0.253268 -0.240605,-0.253268 -0.07598,0 -0.151961,0.03799 -0.07598,0.03799 -0.265931,0.177287 -0.417892,0.316585 -0.886438,0.506536 -0.468546,0.177288 -1.089053,0.177288 -1.30433,0 -2.241421,-0.531863 -0.924429,-0.544526 -1.418301,-1.557598 -0.493873,-1.013072 -0.493873,-2.418709 0,-1.481618 0.531863,-2.558007 0.531863,-1.076389 1.443628,-1.658905 0.924428,-0.59518 2.102124,-0.59518 z m 10.953832,0.11397 3.08987,7.965279 q 0.189951,0.481209 0.430555,0.645833 0.240605,0.151961 0.443219,0.164624 v 0.253268 q -0.253268,-0.02533 -0.620506,-0.02533 -0.367239,-0.01266 -0.734477,-0.01266 -0.493873,0 -0.924429,0.01266 -0.430555,0 -0.696487,0.02533 v -0.253268 q 0.645834,-0.02533 0.823121,-0.215277 0.177288,-0.202615 -0.07598,-0.848448 l -2.355392,-6.29371 0.202614,-0.164624 -2.203432,5.723857 q -0.202614,0.506536 -0.240604,0.861111 -0.03799,0.341912 0.06332,0.544526 0.11397,0.202614 0.367238,0.291258 0.265932,0.08864 0.658497,0.101307 v 0.253268 q -0.354575,-0.02533 -0.74714,-0.02533 -0.379902,-0.01266 -0.709151,-0.01266 -0.316585,0 -0.544526,0.01266 -0.215278,0 -0.405229,0.02533 v -0.253268 q 0.253268,-0.06332 0.5192,-0.291258 0.265931,-0.240604 0.481209,-0.810457 L 34.872207,63.7018 q 0.05065,0 0.101307,0 0.05065,0 0.101307,0 z m 1.544935,5.381945 v 0.253268 h -3.773693 l 0.126634,-0.253268 z m 9.256939,-5.318628 v 0.253268 q -0.430555,0.01266 -0.658496,0.101308 -0.215278,0.07598 -0.291259,0.303921 -0.07598,0.215278 -0.07598,0.683824 v 6.281046 q 0,0.455882 0.07598,0.683824 0.07598,0.227941 0.291259,0.303921 0.227941,0.06332 0.658496,0.06332 h 0.924429 q 0.595179,0 0.962418,-0.126634 0.379902,-0.126634 0.59518,-0.392565 0.227941,-0.278595 0.341912,-0.734477 0.11397,-0.455883 0.177287,-1.114379 h 0.291258 q -0.03799,0.392565 -0.03799,1.038398 0,0.240605 0.01266,0.696487 0.02533,0.443219 0.07598,0.924428 -0.645833,-0.02533 -1.456291,-0.02533 -0.810458,-0.01266 -1.443628,-0.01266 -0.278594,0 -0.721813,0 -0.430556,0 -0.937092,0.01266 -0.506536,0 -1.025735,0.01266 -0.5192,0 -0.987746,0.01266 v -0.253268 q 0.430556,-0.02533 0.645834,-0.101307 0.227941,-0.07598 0.303921,-0.303921 0.07598,-0.227942 0.07598,-0.683824 v -6.281046 q 0,-0.468546 -0.07598,-0.683824 -0.07598,-0.227941 -0.303921,-0.303921 -0.215278,-0.08864 -0.645834,-0.101308 V 63.76511 q 0.265932,0.01266 0.696487,0.02533 0.430556,0.01266 0.924429,0.01266 0.443219,0 0.873774,-0.01266 0.443219,-0.01266 0.734477,-0.02533 z"
           id="text75-8-0"
           inkscape:label="LEGAL"
           transform="scale(1.0835122,0.92292456)"
           aria-label="L E G A L" />
        <path
           id="path75-3-9"
           style="baseline-shift:baseline;display:inline;overflow:visible;opacity:1;vector-effect:none;fill:#2b1c20;fill-opacity:1;stroke-linecap:round;paint-order:fill markers stroke;enable-background:accumulate;stop-color:#000000;stop-opacity:1"
           inkscape:label="Circle"
           d="m 25.812504,1.562467 c -15.195755,-2e-7 -27.5176559,12.321901 -27.517656,27.517656 0,15.195755 12.321901,27.517657 27.517656,27.517657 15.195755,0 27.517657,-12.321902 27.517657,-27.517657 0,-15.195755 -12.321902,-27.517656 -27.517657,-27.517656 z m 6.193883,11.885281 h 0.592726 v 6.436579 h -0.592726 c -0.53623,-2.359054 -2.951878,-5.70097 -7.580328,-5.70097 -2.118247,0.03085 -3.685048,1.486713 -3.714278,3.319812 -0.01792,1.124002 1.004702,2.760042 1.773392,3.572763 0.484175,0.511908 1.097429,1.085127 1.914907,1.823298 0.905032,0.81723 2.376258,2.137994 3.278793,2.95816 l 1.075384,0.976938 c 1.233388,1.120826 3.237541,2.790398 4.335717,3.88861 0.321609,0.321621 0.618295,0.678636 0.886013,1.045303 0.810919,1.110643 1.359459,2.307027 1.555307,2.85698 0.648177,1.820116 0.687814,4.792489 0.209197,6.504943 -0.02862,0.102407 -0.0593,0.200407 -0.09161,0.293287 -0.535434,1.53872 -1.859404,2.832638 -2.249897,3.256232 -1.160661,1.259056 -3.456418,2.49613 -5.151314,2.709995 -0.668578,0.08436 -1.243966,0.143652 -1.880725,0.183902 -1.552578,0.09813 -4.096562,0.07744 -5.597739,-0.326786 -2.028976,-0.546352 -3.218919,-1.295876 -4.093705,-1.918326 -2.485313,-2.150546 -3.029943,-4.036054 -3.029943,-6.403763 0,-0.302351 0.0733,-1.121072 0.211248,-1.862951 0.123752,-0.665564 0.549254,-1.560802 0.809443,-2.033179 0.233604,-0.424112 0.623508,-0.917096 1.053507,-1.378925 l 6.84e-4,-6.84e-4 c 0.448488,-0.481626 0.94017,-0.929308 1.342008,-1.227838 0.387006,-0.287512 0.770559,-0.535892 1.138963,-0.743129 0.117645,-0.06618 0.247438,-0.128007 0.386263,-0.186637 0.04139,-0.01749 0.0835,-0.03519 0.126476,-0.05196 0.678633,-0.264818 1.547585,-0.44053 2.344241,-0.49223 0.462147,-0.02999 0.900338,-0.01759 1.262704,0.04239 1.616793,0.325001 3.106974,1.094861 4.098491,2.48644 l -0.0048,0.979673 c -0.270464,-1.028199 -2.116276,-2.437273 -3.555671,-2.890479 -0.378472,-0.118576 -0.892126,-0.179014 -1.44729,-0.175014 -0.156872,0.0011 -0.316485,0.0076 -0.477873,0.01914 -0.735658,0.05269 -1.497031,0.215494 -2.082402,0.501116 l 0.154505,0.528463 0.943439,3.226835 c 0.846666,3.265527 1.891312,5.188496 3.245977,5.218996 v 0.244747 H 16.08346 v -0.244747 c 0.677333,0 0.875074,-0.701709 0.875074,-1.586756 0,-1.159728 -0.366842,-2.624603 -0.507953,-3.143429 L 16.065685,34.835783 15.886568,34.22118 c -0.08767,0.111263 -0.170649,0.224892 -0.248849,0.340459 -0.477587,0.54712 -1.01125,1.620639 -1.197757,2.333302 -0.255508,0.976343 -0.302913,1.862385 -0.270043,2.819379 0.05605,1.631684 0.852759,3.270458 2.094025,4.557221 1.463157,1.516785 3.556398,2.446842 5.5868,2.774258 0.924864,0.149135 2.460099,0.0759 3.386809,-0.07247 0.759277,-0.121565 1.546958,-0.373868 2.49191,-0.940705 0.544064,-0.32636 1.125252,-0.77036 1.339273,-0.922929 1.606458,-1.145198 3.368484,-3.948094 3.49551,-6.014082 0.0012,-0.02044 0.0024,-0.04116 0.0034,-0.06153 0.04751,-0.994201 -0.09797,-1.888622 -0.315164,-2.623171 -0.225924,-0.764089 -0.862941,-1.896596 -1.359099,-2.510368 -0.518446,-0.641343 -1.222833,-1.396561 -2.150767,-2.332619 L 22.792797,26.18622 c -1.963212,-1.766341 -4.619426,-3.539404 -4.396563,-6.535024 0.154984,-2.782182 1.782487,-5.284467 5.843853,-5.688664 0.65565,-0.06527 1.724579,-0.0382 2.381842,0.0096 1.592036,0.115694 3.16992,0.347311 4.707624,0.814912 0.520043,0 0.654455,-1.108658 0.676815,-1.339273 z m 0.646734,1.497881 h 0.475822 4.949636 v 0.24543 c -1.300993,0 -1.322182,3.487292 -1.322182,4.557905 v 11.198211 h 7.665101 V 19.534297 c 0,-1.254155 -0.04218,-4.343238 -1.322182,-4.343238 v -0.24543 h 5.417938 v 0.24543 c -1.300993,0 -1.322182,3.487292 -1.322182,4.557905 v 16.579232 c 0,1.070625 0.06316,4.557905 1.322182,4.557905 v 0.244063 h -5.417938 v -0.244063 c 1.217052,0 1.322182,-3.48728 1.322182,-4.557905 V 31.3936 h -7.665101 v 4.934596 c 0,1.070625 0.06316,4.557905 1.322182,4.557905 v 0.244063 h -1.79937 c 0.186482,-0.668878 0.283183,-1.364684 0.294653,-2.062576 0.120609,-2.293604 -0.242654,-4.67735 -1.52591,-6.628001 -0.311692,-0.542905 -0.674,-1.041623 -1.071965,-1.510186 V 19.534297 c 0,-1.0755 -0.03104,-3.500472 -0.847044,-4.16959 -0.135549,-0.111153 -0.293485,-0.173648 -0.475822,-0.173648 z m -24.3304728,0.05879 h 5.5874838 l 4.659085,15.940702 c -0.0026,0.001 -0.005,0.001 -0.0075,0.0021 -0.360374,0.144388 -0.70746,0.319608 -1.041202,0.518892 h -6.83e-4 c -0.723887,0.432336 -1.383318,0.981882 -1.970968,1.59701 l -0.482658,-1.65512 -0.0041,-0.01436 h -0.57837 -8.1334014 l -1.6400799,5.676358 c -0.225775,0.762969 -0.3110615,1.464933 -0.3110615,2.044802 0,1.098674 0.367373,1.769974 0.931817,1.769974 v 0.244747 H 1.5209994 v -0.244747 c 1.072443,0 2.2009263,-1.556404 2.7653703,-3.479103 l 5.6161971,-19.07456 c 0.1693362,-0.549343 0.2262882,-1.037316 0.2262882,-1.403537 0,-1.251279 -0.7337628,-1.678364 -1.8062068,-1.678364 z M 10.495293,17.14083 6.480891,30.947171 h 7.85037 0.602297 L 13.29006,25.320724 c -1.298221,-4.486289 -2.258545,-6.928612 -2.794767,-8.17989 z" />
      </g>
      <g
         id="g37"
         inkscape:label="Solid_Icon-Light-BG"
         transform="matrix(5.1526891,0,0,5.1526891,252.21864,1116.2063)"
         style="display:inline;fill:#f5f1e8;fill-opacity:1">
        <path
           id="path37"
           style="baseline-shift:baseline;display:inline;overflow:visible;opacity:1;vector-effect:none;fill:#2b1c20;fill-opacity:1;stroke-linecap:round;paint-order:fill markers stroke;enable-background:accumulate;stop-color:#000000;stop-opacity:1"
           inkscape:label="Circle"
           d="m 25.812504,1.562467 c -15.195755,-2e-7 -27.5176559,12.321901 -27.517656,27.517656 0,15.195755 12.321901,27.517657 27.517656,27.517657 15.195755,0 27.517657,-12.321902 27.517657,-27.517657 0,-15.195755 -12.321902,-27.517656 -27.517657,-27.517656 z m 6.193883,11.885281 h 0.592726 v 6.436579 h -0.592726 c -0.53623,-2.359054 -2.951878,-5.70097 -7.580328,-5.70097 -2.118247,0.03085 -3.685048,1.486713 -3.714278,3.319812 -0.01792,1.124002 1.004702,2.760042 1.773392,3.572763 0.484175,0.511908 1.097429,1.085127 1.914907,1.823298 0.905032,0.81723 2.376258,2.137994 3.278793,2.95816 l 1.075384,0.976938 c 1.233388,1.120826 3.237541,2.790398 4.335717,3.88861 0.321609,0.321621 0.618295,0.678636 0.886013,1.045303 0.810919,1.110643 1.359459,2.307027 1.555307,2.85698 0.648177,1.820116 0.687814,4.792489 0.209197,6.504943 -0.02862,0.102407 -0.0593,0.200407 -0.09161,0.293287 -0.535434,1.53872 -1.859404,2.832638 -2.249897,3.256232 -1.160661,1.259056 -3.456418,2.49613 -5.151314,2.709995 -0.668578,0.08436 -1.243966,0.143652 -1.880725,0.183902 -1.552578,0.09813 -4.096562,0.07744 -5.597739,-0.326786 -2.028976,-0.546352 -3.218919,-1.295876 -4.093705,-1.918326 -2.485313,-2.150546 -3.029943,-4.036054 -3.029943,-6.403763 0,-0.302351 0.0733,-1.121072 0.211248,-1.862951 0.123752,-0.665564 0.549254,-1.560802 0.809443,-2.033179 0.233604,-0.424112 0.623508,-0.917096 1.053507,-1.378925 l 6.84e-4,-6.84e-4 c 0.448488,-0.481626 0.94017,-0.929308 1.342008,-1.227838 0.387006,-0.287512 0.770559,-0.535892 1.138963,-0.743129 0.117645,-0.06618 0.247438,-0.128007 0.386263,-0.186637 0.04139,-0.01749 0.0835,-0.03519 0.126476,-0.05196 0.678633,-0.264818 1.547585,-0.44053 2.344241,-0.49223 0.462147,-0.02999 0.900338,-0.01759 1.262704,0.04239 1.616793,0.325001 3.106974,1.094861 4.098491,2.48644 l -0.0048,0.979673 c -0.270464,-1.028199 -2.116276,-2.437273 -3.555671,-2.890479 -0.378472,-0.118576 -0.892126,-0.179014 -1.44729,-0.175014 -0.156872,0.0011 -0.316485,0.0076 -0.477873,0.01914 -0.735658,0.05269 -1.497031,0.215494 -2.082402,0.501116 l 0.154505,0.528463 0.943439,3.226835 c 0.846666,3.265527 1.891312,5.188496 3.245977,5.218996 v 0.244747 H 16.08346 v -0.244747 c 0.677333,0 0.875074,-0.701709 0.875074,-1.586756 0,-1.159728 -0.366842,-2.624603 -0.507953,-3.143429 L 16.065685,34.835783 15.886568,34.22118 c -0.08767,0.111263 -0.170649,0.224892 -0.248849,0.340459 -0.477587,0.54712 -1.01125,1.620639 -1.197757,2.333302 -0.255508,0.976343 -0.302913,1.862385 -0.270043,2.819379 0.05605,1.631684 0.852759,3.270458 2.094025,4.557221 1.463157,1.516785 3.556398,2.446842 5.5868,2.774258 0.924864,0.149135 2.460099,0.0759 3.386809,-0.07247 0.759277,-0.121565 1.546958,-0.373868 2.49191,-0.940705 0.544064,-0.32636 1.125252,-0.77036 1.339273,-0.922929 1.606458,-1.145198 3.368484,-3.948094 3.49551,-6.014082 0.0012,-0.02044 0.0024,-0.04116 0.0034,-0.06153 0.04751,-0.994201 -0.09797,-1.888622 -0.315164,-2.623171 -0.225924,-0.764089 -0.862941,-1.896596 -1.359099,-2.510368 -0.518446,-0.641343 -1.222833,-1.396561 -2.150767,-2.332619 L 22.792797,26.18622 c -1.963212,-1.766341 -4.619426,-3.539404 -4.396563,-6.535024 0.154984,-2.782182 1.782487,-5.284467 5.843853,-5.688664 0.65565,-0.06527 1.724579,-0.0382 2.381842,0.0096 1.592036,0.115694 3.16992,0.347311 4.707624,0.814912 0.520043,0 0.654455,-1.108658 0.676815,-1.339273 z m 0.646734,1.497881 h 0.475822 4.949636 v 0.24543 c -1.300993,0 -1.322182,3.487292 -1.322182,4.557905 v 11.198211 h 7.665101 V 19.534297 c 0,-1.254155 -0.04218,-4.343238 -1.322182,-4.343238 v -0.24543 h 5.417938 v 0.24543 c -1.300993,0 -1.322182,3.487292 -1.322182,4.557905 v 16.579232 c 0,1.070625 0.06316,4.557905 1.322182,4.557905 v 0.244063 h -5.417938 v -0.244063 c 1.217052,0 1.322182,-3.48728 1.322182,-4.557905 V 31.3936 h -7.665101 v 4.934596 c 0,1.070625 0.06316,4.557905 1.322182,4.557905 v 0.244063 h -1.79937 c 0.186482,-0.668878 0.283183,-1.364684 0.294653,-2.062576 0.120609,-2.293604 -0.242654,-4.67735 -1.52591,-6.628001 -0.311692,-0.542905 -0.674,-1.041623 -1.071965,-1.510186 V 19.534297 c 0,-1.0755 -0.03104,-3.500472 -0.847044,-4.16959 -0.135549,-0.111153 -0.293485,-0.173648 -0.475822,-0.173648 z m -24.3304728,0.05879 h 5.5874838 l 4.659085,15.940702 c -0.0026,0.001 -0.005,0.001 -0.0075,0.0021 -0.360374,0.144388 -0.70746,0.319608 -1.041202,0.518892 h -6.83e-4 c -0.723887,0.432336 -1.383318,0.981882 -1.970968,1.59701 l -0.482658,-1.65512 -0.0041,-0.01436 h -0.57837 -8.1334014 l -1.6400799,5.676358 c -0.225775,0.762969 -0.3110615,1.464933 -0.3110615,2.044802 0,1.098674 0.367373,1.769974 0.931817,1.769974 v 0.244747 H 1.5209994 v -0.244747 c 1.072443,0 2.2009263,-1.556404 2.7653703,-3.479103 l 5.6161971,-19.07456 c 0.1693362,-0.549343 0.2262882,-1.037316 0.2262882,-1.403537 0,-1.251279 -0.7337628,-1.678364 -1.8062068,-1.678364 z M 10.495293,17.14083 6.480891,30.947171 h 7.85037 0.602297 L 13.29006,25.320724 c -1.298221,-4.486289 -2.258545,-6.928612 -2.794767,-8.17989 z" />
      </g>
    </g>
  </g>
</svg>
